HIERARCHY
ROOT Junyuan_V1:Solving:Hips
{
	OFFSET 0.000000 0.000000 0.000000
	CHANNELS 6 Xposition Yposition Zposition Xrotation Yrotation Zrotation
	JOINT Junyuan_V1:Solving:Spine
	{
		OFFSET 0.000000 -8.943189 2.778120
		CHANNELS 6 Xposition Yposition Zposition Xrotation Yrotation Zrotation
		JOINT Junyuan_V1:Solving:Spine1
		{
			OFFSET 0.000000 -9.944814 1.753542
			CHANNELS 6 Xposition Yposition Zposition Xrotation Yrotation Zrotation
			JOINT Junyuan_V1:Solving:Spine2
			{
				OFFSET 0.000000 -10.059801 0.880121
				CHANNELS 6 Xposition Yposition Zposition Xrotation Yrotation Zrotation
				JOINT Junyuan_V1:Solving:Spine3
				{
					OFFSET 0.000000 -10.098228 0.000000
					CHANNELS 6 Xposition Yposition Zposition Xrotation Yrotation Zrotation
					JOINT Junyuan_V1:Solving:Neck
					{
						OFFSET 0.000000 -12.983437 -1.298342
						CHANNELS 6 Xposition Yposition Zposition Xrotation Yrotation Zrotation
						JOINT Junyuan_V1:Solving:Neck1
						{
							OFFSET 0.000000 -8.085114 -0.707354
							CHANNELS 6 Xposition Yposition Zposition Xrotation Yrotation Zrotation
							JOINT Junyuan_V1:Solving:Head
							{
								OFFSET 0.000000 -7.992695 -1.409326
								CHANNELS 6 Xposition Yposition Zposition Xrotation Yrotation Zrotation
								JOINT Junyuan_V1:Solving:HeadEnd
								{
									OFFSET 0.000000 -9.728081 0.000002
									CHANNELS 6 Xposition Yposition Zposition Xrotation Yrotation Zrotation
									End Site
									{
										OFFSET 0.000000 -9.728081 0.000002
									}
								}
							}
						}
					}
					JOINT Junyuan_V1:Solving:RightShoulder
					{
						OFFSET 0.000000 -9.273884 -6.154356
						CHANNELS 6 Xposition Yposition Zposition Xrotation Yrotation Zrotation
						JOINT Junyuan_V1:Solving:RightArm
						{
							OFFSET -19.110832 -0.000008 0.000000
							CHANNELS 6 Xposition Yposition Zposition Xrotation Yrotation Zrotation
							JOINT Junyuan_V1:Solving:RightForeArm
							{
								OFFSET -27.916382 -0.000008 0.000000
								CHANNELS 6 Xposition Yposition Zposition Xrotation Yrotation Zrotation
								JOINT Junyuan_V1:Solving:RightHand
								{
									OFFSET -21.757072 -0.000008 0.000000
									CHANNELS 6 Xposition Yposition Zposition Xrotation Yrotation Zrotation
									JOINT Junyuan_V1:Solving:RightHandThumb1
									{
										OFFSET -3.656471 2.766285 -2.718907
										CHANNELS 6 Xposition Yposition Zposition Xrotation Yrotation Zrotation
										End Site
										{
											OFFSET -5.307442 0.000000 -5.356520
										}
									}
									JOINT Junyuan_V1:Solving:RightHandMiddle1
									{
										OFFSET -9.750572 -0.000004 0.062504
										CHANNELS 6 Xposition Yposition Zposition Xrotation Yrotation Zrotation
										End Site
										{
											OFFSET -7.540642 -0.000004 0.000000
										}
									}
								}
							}
						}
					}
					JOINT Junyuan_V1:Solving:LeftShoulder
					{
						OFFSET 0.000000 -9.273884 -6.154356
						CHANNELS 6 Xposition Yposition Zposition Xrotation Yrotation Zrotation
						JOINT Junyuan_V1:Solving:LeftArm
						{
							OFFSET 19.110832 -0.000008 0.000000
							CHANNELS 6 Xposition Yposition Zposition Xrotation Yrotation Zrotation
							JOINT Junyuan_V1:Solving:LeftForeArm
							{
								OFFSET 27.916382 -0.000008 0.000000
								CHANNELS 6 Xposition Yposition Zposition Xrotation Yrotation Zrotation
								JOINT Junyuan_V1:Solving:LeftHand
								{
									OFFSET 21.757072 -0.000008 0.000000
									CHANNELS 6 Xposition Yposition Zposition Xrotation Yrotation Zrotation
									JOINT Junyuan_V1:Solving:LeftHandThumb1
									{
										OFFSET 3.656471 2.766285 -2.718907
										CHANNELS 6 Xposition Yposition Zposition Xrotation Yrotation Zrotation
										End Site
										{
											OFFSET 5.307442 0.000000 -5.356520
										}
									}
									JOINT Junyuan_V1:Solving:LeftHandMiddle1
									{
										OFFSET 9.750572 -0.000004 0.062504
										CHANNELS 6 Xposition Yposition Zposition Xrotation Yrotation Zrotation
										End Site
										{
											OFFSET 7.540642 -0.000004 0.000000
										}
									}
								}
							}
						}
					}
				}
			}
		}
	}
	JOINT Junyuan_V1:Solving:RightUpLeg
	{
		OFFSET -8.521003 0.000000 0.000000
		CHANNELS 6 Xposition Yposition Zposition Xrotation Yrotation Zrotation
		JOINT Junyuan_V1:Solving:RightLeg
		{
			OFFSET 0.000000 41.622898 -0.000006
			CHANNELS 6 Xposition Yposition Zposition Xrotation Yrotation Zrotation
			JOINT Junyuan_V1:Solving:RightFoot
			{
				OFFSET 0.000000 37.258389 -0.000006
				CHANNELS 6 Xposition Yposition Zposition Xrotation Yrotation Zrotation
				JOINT Junyuan_V1:Solving:RightForeFoot
				{
					OFFSET 0.000000 3.234154 -0.000000
					CHANNELS 6 Xposition Yposition Zposition Xrotation Yrotation Zrotation
					JOINT Junyuan_V1:Solving:RightToeBase
					{
						OFFSET 0.000000 0.000000 -12.665958
						CHANNELS 6 Xposition Yposition Zposition Xrotation Yrotation Zrotation
						JOINT Junyuan_V1:Solving:RightToeBaseEnd
						{
							OFFSET 0.000000 0.000000 -2.833065
							CHANNELS 6 Xposition Yposition Zposition Xrotation Yrotation Zrotation
							End Site
							{
								OFFSET 0.000000 -2.833061 0.000002
							}
						}
					}
				}
			}
		}
	}
	JOINT Junyuan_V1:Solving:LeftUpLeg
	{
		OFFSET 8.521003 0.000000 0.000000
		CHANNELS 6 Xposition Yposition Zposition Xrotation Yrotation Zrotation
		JOINT Junyuan_V1:Solving:LeftLeg
		{
			OFFSET 0.000000 41.622898 -0.000006
			CHANNELS 6 Xposition Yposition Zposition Xrotation Yrotation Zrotation
			JOINT Junyuan_V1:Solving:LeftFoot
			{
				OFFSET 0.000000 37.258389 -0.000006
				CHANNELS 6 Xposition Yposition Zposition Xrotation Yrotation Zrotation
				JOINT Junyuan_V1:Solving:LeftForeFoot
				{
					OFFSET 0.000000 3.234154 -0.000000
					CHANNELS 6 Xposition Yposition Zposition Xrotation Yrotation Zrotation
					JOINT Junyuan_V1:Solving:LeftToeBase
					{
						OFFSET 0.000000 0.000000 -12.665958
						CHANNELS 6 Xposition Yposition Zposition Xrotation Yrotation Zrotation
						JOINT Junyuan_V1:Solving:LeftToeBaseEnd
						{
							OFFSET 0.000000 0.000000 -4.326123
							CHANNELS 6 Xposition Yposition Zposition Xrotation Yrotation Zrotation
							End Site
							{
								OFFSET 0.000000 -4.326126 0.000000
							}
						}
					}
				}
			}
		}
	}
}
MOTION
Frames: 4
Frame Time: 0.041667
1.704345 59.078098 -79.580261 70.500086 171.139255 15.325230 -0.000002 -8.943196 2.778110 29.746051 -0.313943 -2.973789 0.000000 -9.944814 1.753543 5.692096 -0.071931 -0.689768 -0.000000 -10.059816 0.880147 -1.553038 -3.189594 -2.321297 -0.000001 -10.098237 0.000014 -7.119154 -1.255342 -2.908186 -0.000003 -12.983443 -1.298338 -1.001571 0.405936 4.570959 0.000001 -8.085114 -0.707381 -11.904575 1.863428 -2.139249 0.000002 -7.992702 -1.409318 -9.642636 1.131059 -2.339908 0.000001 -9.728081 -0.000003 0.000001 -0.000001 0.000000 -0.000003 -9.273895 -6.154362 -0.000002 6.114779 15.945584 -19.110828 -0.000028 -0.000022 -51.183208 8.821106 -92.565736 -27.916384 -0.000002 0.000000 -4.219562 -22.922369 -1.645978 -21.757076 -0.000004 0.000005 0.536229 11.127521 -2.776406 -3.656461 2.766278 -2.718899 0.000001 0.000002 -0.000007 -9.750558 -0.000005 0.062508 0.000000 0.000000 -0.000001 0.000002 -9.273895 -6.154363 -0.000004 -3.034468 -17.291889 19.110821 -0.000020 -0.000009 -60.274521 12.673364 86.469450 27.916391 0.000005 -0.000007 -31.504203 10.584427 6.423335 21.757076 -0.000013 -0.000000 -0.043558 0.337523 7.353167 3.656467 2.766287 -2.718892 -0.000001 -0.000002 0.000004 9.750572 0.000003 0.062516 -0.000000 -0.000005 0.000000 -8.521001 -0.000011 -0.000013 -50.632312 28.941086 3.363946 0.000005 41.622890 -0.000007 42.403706 0.000002 0.000003 -0.000001 37.258389 -0.000011 -5.846116 -10.639091 3.705998 0.000002 3.234146 0.000002 -0.000000 -0.000000 -0.000000 0.000001 -0.000003 -12.665952 -7.225393 0.000000 -0.000000 -0.000000 -0.000008 -2.833066 0.000000 0.000000 0.000000 8.521003 0.000000 -0.000008 -56.668392 1.484178 -25.890974 0.000008 41.622894 -0.000008 42.443769 -0.000002 0.000001 -0.000006 37.258389 -0.000005 -1.342787 13.139067 19.885717 0.000002 3.234161 -0.000005 -0.000000 0.000004 -0.000000 -0.000000 0.000007 -12.665959 6.437139 0.000001 -0.000000 -0.000009 -0.000008 -4.326124 0.000000 0.000002 -0.000001 
1.733995 59.092308 -79.294975 70.603037 170.911865 15.185228 -0.000004 -8.943201 2.778141 29.875627 -0.347791 -3.136388 0.000000 -9.944816 1.753555 5.761533 -0.064941 -0.722715 -0.000000 -10.059798 0.880127 -1.523377 -3.117351 -2.381106 -0.000001 -10.098235 0.000022 -7.165352 -1.244154 -2.924649 0.000000 -12.983420 -1.298365 -0.980634 0.392915 4.658544 -0.000001 -8.085097 -0.707353 -11.964632 1.785124 -2.127458 0.000001 -7.992703 -1.409335 -9.668275 1.104434 -2.297322 -0.000001 -9.728088 -0.000006 0.000003 0.000001 -0.000000 -0.000002 -9.273884 -6.154372 -0.000005 6.076167 15.978669 -19.110813 -0.000008 0.000008 -51.325822 8.848243 -92.490638 -27.916401 0.000001 0.000001 -4.315270 -22.843909 -1.677979 -21.757069 -0.000013 0.000005 0.531039 10.913391 -2.802750 -3.656457 2.766279 -2.718914 0.000003 0.000002 -0.000001 -9.750573 -0.000016 0.062499 0.000001 0.000001 -0.000001 0.000006 -9.273884 -6.154373 -0.000004 -2.888228 -17.184857 19.110813 -0.000011 -0.000008 -60.338205 12.686322 86.513334 27.916374 0.000003 -0.000001 -32.390939 10.358047 6.507268 21.757071 -0.000013 -0.000003 -0.115831 0.879788 7.500515 3.656487 2.766280 -2.718902 -0.000002 0.000005 0.000001 9.750588 0.000002 0.062506 0.000002 -0.000002 0.000001 -8.521007 -0.000023 0.000017 -50.464508 28.478354 2.972435 0.000004 41.622902 -0.000005 42.398966 0.000002 0.000002 -0.000003 37.258400 0.000010 -3.981791 -9.869183 8.320139 0.000001 3.234154 -0.000011 -0.000001 -0.000000 -0.000000 0.000001 -0.000004 -12.665974 -6.530455 0.000001 -0.000000 -0.000000 -0.000008 -2.833060 0.000000 -0.000000 -0.000000 8.520998 -0.000003 0.000018 -57.082087 1.465391 -25.778218 0.000010 41.622902 -0.000006 43.328377 -0.000003 0.000004 0.000006 37.258396 -0.000004 -1.748634 13.371572 19.808401 -0.000002 3.234146 0.000002 -0.000000 -0.000002 0.000001 0.000003 0.000001 -12.665959 6.513769 0.000003 -0.000003 0.000000 -0.000007 -4.326119 0.000001 0.000002 -0.000001 
1.844448 59.114025 -79.032570 70.692820 170.970030 15.202850 0.000000 -8.943176 2.778116 29.959406 -0.509192 -3.260743 -0.000001 -9.944801 1.753536 5.806018 -0.064007 -0.751699 -0.000000 -10.059787 0.880134 -1.442994 -3.193714 -2.422997 0.000001 -10.098240 -0.000014 -7.216114 -1.255876 -2.969992 0.000002 -12.983432 -1.298329 -0.973557 0.361833 4.743308 -0.000000 -8.085122 -0.707367 -12.074951 1.726598 -2.122012 0.000002 -7.992654 -1.409324 -9.715603 1.080085 -2.255907 -0.000000 -9.728081 -0.000000 0.000003 0.000001 -0.000001 -0.000003 -9.273888 -6.154351 -0.000007 6.081885 16.003644 -19.110817 -0.000021 -0.000006 -51.500470 8.973952 -92.485119 -27.916367 0.000002 -0.000005 -3.124085 -22.927574 -1.218061 -21.757071 -0.000010 0.000010 0.496287 11.257080 -2.540727 -3.656486 2.766286 -2.718899 0.000004 0.000010 -0.000008 -9.750587 0.000009 0.062504 0.000002 0.000004 0.000002 0.000004 -9.273876 -6.154357 -0.000008 -2.863989 -17.079378 19.110825 -0.000037 -0.000008 -60.514356 12.550210 86.589286 27.916395 -0.000001 -0.000002 -32.405235 10.301103 6.475711 21.757069 -0.000011 -0.000005 -0.126667 0.969447 7.444372 3.656469 2.766280 -2.718907 -0.000001 0.000005 0.000007 9.750581 -0.000005 0.062513 0.000000 0.000006 0.000001 -8.520998 0.000019 -0.000009 -50.644009 26.713792 2.323852 0.000002 41.622906 0.000001 43.339084 0.000002 0.000003 -0.000002 37.258396 -0.000000 -3.681704 -6.352454 8.144976 -0.000000 3.234146 -0.000000 -0.000001 -0.000000 0.000000 0.000001 -0.000018 -12.665956 0.831142 0.000000 -0.000000 0.000001 -0.000008 -2.833074 -0.000001 -0.000000 -0.000001 8.521005 0.000012 -0.000003 -57.546816 1.462940 -26.028087 0.000001 41.622902 -0.000003 44.147887 0.000001 0.000000 0.000004 37.258396 -0.000005 -2.082775 13.561322 19.887426 0.000001 3.234154 -0.000002 -0.000001 -0.000004 0.000001 0.000009 -0.000014 -12.665958 6.579185 0.000001 -0.000001 -0.000004 -0.000015 -4.326124 0.000001 0.000002 0.000000 
1.929085 59.183781 -78.774429 70.630003 170.829042 15.239679 0.000003 -8.943192 2.778113 30.045346 -0.670952 -3.504278 0.000000 -9.944807 1.753531 5.779500 -0.055772 -0.805926 0.000000 -10.059795 0.880147 -1.436025 -3.108079 -2.494250 0.000003 -10.098225 -0.000006 -7.236778 -1.247897 -2.968281 -0.000002 -12.983418 -1.298346 -0.991652 0.343220 4.807491 -0.000001 -8.085147 -0.707346 -12.126088 1.657840 -2.093658 -0.000002 -7.992711 -1.409337 -9.780775 1.061963 -2.225400 -0.000000 -9.728088 0.000001 -0.000000 0.000000 -0.000000 -0.000003 -9.273872 -6.154345 -0.000013 6.037896 16.031627 -19.110823 -0.000022 -0.000013 -51.677310 9.177542 -92.442396 -27.916365 -0.000002 -0.000006 -2.881038 -22.964498 -1.124873 -21.757093 -0.000013 0.000002 0.515742 11.511112 -2.582764 -3.656451 2.766274 -2.718910 0.000000 0.000002 -0.000003 -9.750566 0.000005 0.062507 0.000001 -0.000002 -0.000001 0.000004 -9.273872 -6.154346 -0.000012 -2.818409 -17.038078 19.110813 -0.000012 -0.000001 -60.645209 12.530009 86.673454 27.916384 -0.000009 -0.000006 -32.593010 10.293638 6.517686 21.757076 -0.000007 0.000006 -0.127945 1.007016 7.241355 3.656458 2.766275 -2.718902 0.000002 -0.000007 0.000001 9.750571 0.000002 0.062507 0.000000 -0.000003 -0.000001 -8.521004 -0.000026 -0.000006 -50.905086 24.719237 1.920072 -0.000001 41.622875 0.000001 43.869130 0.000000 0.000003 -0.000000 37.258392 -0.000004 -5.189327 -2.653751 4.549147 -0.000002 3.234146 -0.000000 0.000000 -0.000000 0.000000 0.000000 -0.000014 -12.665958 -3.400210 -0.000001 -0.000000 -0.000001 -0.000008 -2.833064 0.000000 0.000001 0.000000 8.521005 -0.000005 -0.000007 -58.140715 1.672009 -26.002897 0.000005 41.622894 -0.000017 44.987509 0.000003 0.000001 0.000003 37.258381 -0.000019 -2.327069 13.642414 19.841952 0.000007 3.234146 -0.000010 -0.000001 -0.000006 -0.000001 0.000004 -0.000006 -12.665963 6.632064 -0.000002 -0.000000 -0.000001 0.000001 -4.326126 0.000001 0.000001 0.000002 
